<?xml version="1.0" ?><svg data-name="Layer 2" id="b3390df0-4905-4c89-adf1-6589de446491" viewBox="0 0 38 38" xmlns="http://www.w3.org/2000/svg"><path d="M29.429,36.744H8.571a5.259,5.259,0,0,1-5.252-5.252V6.509A5.259,5.259,0,0,1,8.571,1.256h13.32A5.239,5.239,0,0,1,25.615,2.8h0l7.521,7.515a5.3,5.3,0,0,1,1.545,3.727V31.492A5.259,5.259,0,0,1,29.429,36.744ZM8.571,3.756A2.757,2.757,0,0,0,5.819,6.509V31.492a2.756,2.756,0,0,0,2.752,2.752H29.429a2.756,2.756,0,0,0,2.752-2.752V14.04a2.786,2.786,0,0,0-.811-1.958L23.848,4.566h0a2.75,2.75,0,0,0-1.957-.811Z"/><path d="M32.32,13.72H27.665A5.24,5.24,0,0,1,22.43,8.485V2.51h2.5V8.485a2.738,2.738,0,0,0,2.735,2.735H32.32Z"/><path d="M17.007,19.844l-3.2,7.519a.908.908,0,0,1-.318.436.774.774,0,0,1-.466.155.741.741,0,0,1-.592-.222.8.8,0,0,1-.193-.547.961.961,0,0,1,.045-.281l3.685-8.851a.956.956,0,0,1,.363-.458.78.78,0,0,1,.525-.134.869.869,0,0,1,.5.156.89.89,0,0,1,.333.436l3.64,8.673a.982.982,0,0,1,.074.355.817.817,0,0,1-.259.636.828.828,0,0,1-.57.237.777.777,0,0,1-.481-.163,1.067,1.067,0,0,1-.333-.444l-3.181-7.414Zm-2.738,5.713.814-1.7h4l.281,1.7Z" stroke="#000" stroke-miterlimit="10" stroke-width="0.25"/><path d="M23.281,19a1.172,1.172,0,0,1-.71-.162.7.7,0,0,1-.207-.577V17.98a.658.658,0,0,1,.229-.585,1.267,1.267,0,0,1,.7-.155,1.208,1.208,0,0,1,.726.163.7.7,0,0,1,.207.577v.281a.669.669,0,0,1-.222.584A1.3,1.3,0,0,1,23.281,19Zm.9,7.978a.888.888,0,0,1-.251.643.912.912,0,0,1-1.273,0,.885.885,0,0,1-.252-.643V20.866a.885.885,0,0,1,.252-.644.909.909,0,0,1,1.273,0,.889.889,0,0,1,.251.644Z" stroke="#000" stroke-miterlimit="10" stroke-width="0.25"/></svg>