<?xml version="1.0" ?><svg data-name="Layer 2" id="b1d0c14e-7d10-46ac-92ca-37d0d494be96" viewBox="0 0 38 38" xmlns="http://www.w3.org/2000/svg"><path d="M29.429,36.744H8.571a5.259,5.259,0,0,1-5.252-5.252V6.509A5.259,5.259,0,0,1,8.571,1.256h13.32A5.239,5.239,0,0,1,25.615,2.8h0l7.521,7.515a5.3,5.3,0,0,1,1.545,3.727V31.492A5.259,5.259,0,0,1,29.429,36.744ZM8.571,3.756A2.757,2.757,0,0,0,5.819,6.509V31.492a2.756,2.756,0,0,0,2.752,2.752H29.429a2.756,2.756,0,0,0,2.752-2.752V14.04a2.786,2.786,0,0,0-.811-1.958L23.848,4.566h0a2.75,2.75,0,0,0-1.957-.811Z"/><path d="M32.32,13.72H27.665A5.24,5.24,0,0,1,22.43,8.485V2.51h2.5V8.485a2.738,2.738,0,0,0,2.735,2.735H32.32Z"/><path d="M16.489,17.521a2.579,2.579,0,0,1,1.444.443,3.334,3.334,0,0,1,1.087,1.2,3.608,3.608,0,0,1,0,3.36,3.389,3.389,0,0,1-1.087,1.206,2.549,2.549,0,0,1-1.444.451H13.767l.148-.266v3.064a.92.92,0,0,1-.237.643.8.8,0,0,1-.622.259.784.784,0,0,1-.607-.259.92.92,0,0,1-.237-.643V18.423a.886.886,0,0,1,.9-.9Zm0,4.972a.822.822,0,0,0,.548-.237,1.852,1.852,0,0,0,.444-.614,1.867,1.867,0,0,0,0-1.591,1.806,1.806,0,0,0-.444-.6.835.835,0,0,0-.548-.229H13.737l.178-.267V22.73l-.163-.237Z" stroke="#000" stroke-miterlimit="10" stroke-width="0.25"/><path d="M20.53,26.652a.819.819,0,0,1-.133-.533.71.71,0,0,1,.384-.562.8.8,0,0,1,.5-.126.843.843,0,0,1,.518.273,3.446,3.446,0,0,0,.9.666,2.623,2.623,0,0,0,1.184.238,3.879,3.879,0,0,0,.488-.067.948.948,0,0,0,.467-.237.74.74,0,0,0,.2-.569.652.652,0,0,0-.222-.519,1.872,1.872,0,0,0-.584-.325q-.363-.133-.807-.252t-.94-.3a3.909,3.909,0,0,1-.88-.422,2.009,2.009,0,0,1-.651-.688,2.1,2.1,0,0,1-.252-1.08,1.947,1.947,0,0,1,.415-1.258,2.7,2.7,0,0,1,1.072-.8,3.5,3.5,0,0,1,1.384-.281,4.523,4.523,0,0,1,.962.11,3.753,3.753,0,0,1,.962.356,2.4,2.4,0,0,1,.77.643,1.062,1.062,0,0,1,.192.533.637.637,0,0,1-.281.563.715.715,0,0,1-.518.155.777.777,0,0,1-.488-.2,1.752,1.752,0,0,0-.674-.518,2.315,2.315,0,0,0-.969-.192,2.5,2.5,0,0,0-.481.052.953.953,0,0,0-.451.221.808.808,0,0,0,.029,1.081,1.685,1.685,0,0,0,.6.326q.376.126.806.244t.9.281a3.558,3.558,0,0,1,.843.429,2.029,2.029,0,0,1,.622.688,2.171,2.171,0,0,1,.237,1.073,1.946,1.946,0,0,1-.444,1.288,2.806,2.806,0,0,1-1.11.806,3.544,3.544,0,0,1-1.362.275,5.3,5.3,0,0,1-1.746-.3A3.018,3.018,0,0,1,20.53,26.652Z" stroke="#000" stroke-miterlimit="10" stroke-width="0.25"/></svg>